<svg id="Ebene_1" data-name="Ebene 1" xmlns="http://www.w3.org/2000/svg" viewBox="0 0 224.31 232.41"><path d="M84,258.65c-7.63-18.31-9.72-37.26-10.81-56.88-.85-15.19-1.3-30.4-1.61-45.62-.36-17.6-1-35.17-.78-52.78q.38-32.87,2.56-65.67c.29-4.55-5-6.23-6-1.25-7,32.45-13.54,65-19.31,97.69l6,1.25A324.8,324.8,0,0,0,43.74,67C42.55,62.42,38,65.71,38,69.07c.3,41.6,1.14,83.19,1.55,124.78,0,6,6.1,3.35,6-1.48-.67-41-.75-82.07-1.45-123.1l-5.77,2.09a285.92,285.92,0,0,1,9.57,64c.16,4.3,5.06,6.51,6,1.24,6-32.64,12.34-65.22,19.31-97.68l-6-1.25c-3.47,53.13-3.08,106.43-.35,159.59.59,11.46,1,23,2.82,34.39a164.64,164.64,0,0,0,9,32.45c1.92,5,6.79-1.9,5.32-5.43Z" transform="translate(-37.97 -33.42)"/><path d="M93.08,201.49c-3.94-40.08-2.21-81.59,3.61-121.42l-6.34,3.34c8,37.83,15.14,76.83,13.88,115.71-.18,5.36,7.07.06,6.7-3.89-1.75-19.21-2.09-38.46-4.37-57.64-2.36-19.84-5.28-39.94-9.85-59.4-1.14-4.85-6.24,2.35-6.46,4.34-2.07,19.2-3.9,38.38-4.63,57.69-.81,21.69-.17,43.35.2,65,.07,4.25,7.59-.44,7.26-3.76Z" transform="translate(-37.97 -33.42)"/><path d="M75.09,170.78c5.24,1.84,10.42,1,15.81.25,6.17-.84,12.52-1.33,18.59-2.68,3.57-.79,4.68-9.18.24-8.82-5.14.42-10.26,1.33-15.37,2.07-4.48.66-10.56,2.57-15.1,1.21-3.57-1.07-7.59,6.77-4.17,8Z" transform="translate(-37.97 -33.42)"/><path d="M121.48,162.56c-3-10.39-4.15-22.11-4.62-32.89a56.56,56.56,0,0,1,.09-8.13c.45-4.43,2.73-5.12,6.69-4.31s9.46,3,9.84,7.66c.69,8.36-8.92,5.84-13.69,6.61-3.67.6-6.09,4.55-5.36,8.18.84,4.18,5.95,7.54,8.88,10.17a184.21,184.21,0,0,1,14.32,13.62c3.18,3.56,6.87-4.63,4.05-7.28-6-5.65-11.92-11.48-17.83-17.26-.82-.81-1.8-2.29-2.78-2.87a4.42,4.42,0,0,1-.66-.94q-5,5.56-1.22,5a20,20,0,0,0,10.07-.51c13.29-4.28,13.33-24.13,1.19-29.6-4.27-1.93-10-3.35-14.06-.37-5.51,4-5.69,12.3-5.62,18.48.16,13.15,2.88,25.93,4.37,38.93.62,5.43,7.5-.57,6.34-4.53Z" transform="translate(-37.97 -33.42)"/><path d="M162.53,123.55c-9.44-.62-16.38,8.13-17.39,16.93-.59,5.08.73,10.66,4.86,14,3.52,2.83,10.91,5.38,15,3,2-1.15,4.66-7.72.72-8-6.1-.36-16.94-1.16-14.33-10.29,1.53-5.36,6.81-6,10.45-9.28,1-.9,3.81-6.17.66-6.37Z" transform="translate(-37.97 -33.42)"/><path d="M179.37,129.68c-7.14.33-10,7.14-10.3,13.37-.15,3,.37,6.11,3.18,7.75a8.69,8.69,0,0,0,6.85.51c5.28-1.57,9.56-6.82,8.87-12.46-.54-4.37-3.76-9.53-8.63-9.1-1.76.15-7.69,5.71-4.26,6.64a7.12,7.12,0,0,1,4.54,3.57,10.07,10.07,0,0,1,1,2.64c.11.45.09.93.2,1.38l0,.81c.46-.68.38-.91-.24-.71-.46-.23-1.68-.06-2.27-.26a3.54,3.54,0,0,1-2.61-2.72c-.63-2.83-.09-4.06,2.25-5.35C179.3,135,183.18,129.51,179.37,129.68Z" transform="translate(-37.97 -33.42)"/><path d="M220.51,158.23c-2.38-13.14-3.1-26.76-4.26-40.06-1.13-13-3.33-26.78-2.56-39.81.31-5.17-7.66-.25-6.68,3.94,1.37,5.84,1.21,12.2,1.65,18.16q.74,9.84,1.59,19.69c1.23,14.07,3.16,28.12,4,42.21.31,5,6.91-.33,6.22-4.13Z" transform="translate(-37.97 -33.42)"/><path d="M196,64c12.55,6.89,25.27,13.62,37.27,21.45,7.21,4.69,14.11,10.32,19.2,17.34,8.2,11.29-.13,26.77-6,37.43-6,10.86-12.22,21.6-18.85,32.09C220.83,183,212.72,193,206.5,204c-1.5,2.66.32,10.06,3.88,6.05,8.27-9.31,15-20.62,21.62-31.13,7-11.06,13.74-22.38,19.78-34a130.59,130.59,0,0,0,8.44-20.82c2.06-6.45,3-13,.75-19.53-3.29-9.48-11.77-17.56-19.71-23.47-12.6-9.38-26.73-17.32-40.52-24.79-3.25-1.76-7.92,5.9-4.75,7.64Z" transform="translate(-37.97 -33.42)"/><path d="M251.13,164.36a10.55,10.55,0,0,0-1.86,4.65,14.82,14.82,0,0,0,0,3.88,1.77,1.77,0,0,0,2.11,1.57,5.41,5.41,0,0,0,3.36-2.34c1.61-2.28,3.41-4.83,3.78-7.66.14-1.14,0-2.53-1.1-3.15-2.07-1.17-4.55.89-5.8,2.26s-2.3,3.65-1.49,5.33,2.59,1.15,3.81.2c.4-.3.37-.29-.08,0,.36-.18.3-.17-.18,0-1.16.26-1.7-1-1.67-2,0,.44.19-1.18.09-.67s.52-1.26.14-.45c0,.1-.21.63-.3.65.2-.05.44-.78,0,0s-.9,1.51-1.37,2.26l5.47-.77c0-.34,0-.69,0-1,0-.74-.07.33,0-.49,0-.23,0-.47.07-.7.16-1.14.54-.52-.84,1.52.84-1.25,2.32-3.89.68-5.15S251.93,163.15,251.13,164.36Z" transform="translate(-37.97 -33.42)"/></svg>