<svg xmlns="http://www.w3.org/2000/svg" xmlns:xlink="http://www.w3.org/1999/xlink" viewBox="0 0 951.13 561.85"><defs><style>.cls-1,.cls-35,.cls-36,.cls-37,.cls-40,.cls-41,.cls-42{fill:none;}.cls-2,.cls-44{fill:#fff;}.cls-2{stroke:#1d1d1b;}.cls-2,.cls-27,.cls-28,.cls-29,.cls-45,.cls-46,.cls-47,.cls-48{stroke-miterlimit:10;}.cls-3{isolation:isolate;}.cls-4{clip-path:url(#clip-path);}.cls-5{fill:#191919;}.cls-6{fill:#1a1a1a;}.cls-7{fill:#1b1b1b;}.cls-8{fill:#1c1c1c;}.cls-9{fill:#1d1d1d;}.cls-10{fill:#1e1e1e;}.cls-11{fill:#1f1f1f;}.cls-12{fill:#202020;}.cls-13{fill:#212121;}.cls-14{fill:#222;}.cls-15{fill:#232323;}.cls-16{fill:#252526;}.cls-17{clip-path:url(#clip-path-2);}.cls-18{clip-path:url(#clip-path-3);}.cls-19{clip-path:url(#clip-path-4);}.cls-20{clip-path:url(#clip-path-5);}.cls-21{clip-path:url(#clip-path-6);}.cls-22{clip-path:url(#clip-path-7);}.cls-23{clip-path:url(#clip-path-8);}.cls-24{clip-path:url(#clip-path-9);}.cls-25{fill:#29292a;}.cls-26{clip-path:url(#clip-path-10);}.cls-27,.cls-28{fill:#393a3a;}.cls-27{stroke:#393a3a;}.cls-27,.cls-28,.cls-31,.cls-32,.cls-33,.cls-42{stroke-width:5.13px;}.cls-28,.cls-34,.cls-37,.cls-38,.cls-39,.cls-40,.cls-41,.cls-42,.cls-43,.cls-44{stroke:#9c9b9b;}.cls-29{fill:#9b9b9a;stroke:#9b9b9a;}.cls-29,.cls-30,.cls-38,.cls-39,.cls-40,.cls-44{stroke-width:1.62px;}.cls-30{stroke:#000;}.cls-30,.cls-31,.cls-32,.cls-33,.cls-34,.cls-35,.cls-36,.cls-37,.cls-38,.cls-39,.cls-40,.cls-41,.cls-42,.cls-43,.cls-44{stroke-linejoin:round;}.cls-31{stroke:#4d4b4b;}.cls-32{fill:#934190;stroke:#934190;}.cls-33{fill:#53ae32;stroke:#53ae32;}.cls-34,.cls-45,.cls-46,.cls-47,.cls-48{stroke-width:2.7px;}.cls-35{stroke:#7a7778;stroke-width:2.16px;}.cls-36{stroke:#e3201b;}.cls-36,.cls-37,.cls-39,.cls-40,.cls-41,.cls-42,.cls-43,.cls-44{stroke-linecap:round;}.cls-36,.cls-37{stroke-width:1.89px;}.cls-38,.cls-39,.cls-43{fill:#9c9b9b;}.cls-41{stroke-width:4.05px;}.cls-43{stroke-width:3.51px;}.cls-45{fill:#924291;stroke:#924291;}.cls-46{fill:#48bdd7;stroke:#48bdd7;}.cls-47{fill:#eccb00;stroke:#eccb00;}.cls-48{fill:#54ae33;stroke:#54ae33;}</style><clipPath id="clip-path" transform="translate(-492.8 -255.61)"><path class="cls-1" d="M851.48,261.9l0,11.41c-5.62-3.25-14.76-3.25-20.35,0l0-11.41C836.71,258.65,845.85,258.65,851.48,261.9Z"/></clipPath><clipPath id="clip-path-2" transform="translate(-492.8 -255.61)"><path class="cls-1" d="M499.45,469.47l0-11.41c0-2.12,1.4-4.24,4.17-5.85l0,11.41C500.84,465.23,499.45,467.35,499.45,469.47Z"/></clipPath><clipPath id="clip-path-3" transform="translate(-492.8 -255.61)"><path class="cls-1" d="M499.45,469.51v0l0-11.41v0Z"/></clipPath><clipPath id="clip-path-4" transform="translate(-492.8 -255.61)"><path class="cls-1" d="M503.69,475.41c-2.82-1.63-4.23-3.76-4.24-5.9l0-11.41c0,2.14,1.43,4.27,4.24,5.89C503.71,467.42,503.7,472,503.69,475.41Z"/></clipPath><clipPath id="clip-path-5" transform="translate(-492.8 -255.61)"><path class="cls-1" d="M492.8,469.45l0-11.41c0,3.14,2.06,6.29,6.2,8.68l0,11.41C494.86,475.74,492.79,472.59,492.8,469.45Z"/></clipPath><clipPath id="clip-path-6" transform="translate(-492.8 -255.61)"><path class="cls-1" d="M1437.28,603.6l0,11.41c0-2.15-1.41-4.3-4.24-5.93l0-11.41C1435.87,599.3,1437.29,601.45,1437.28,603.6Z"/></clipPath><clipPath id="clip-path-7" transform="translate(-492.8 -255.61)"><path class="cls-1" d="M1437.25,615c0,2.12-1.4,4.25-4.18,5.86l0-11.41c2.78-1.62,4.18-3.74,4.18-5.86C1437.27,607,1437.26,611.59,1437.25,615Z"/></clipPath><clipPath id="clip-path-8" transform="translate(-492.8 -255.61)"><path class="cls-1" d="M1443.93,603.62l0,11.41c0,3.1-2.05,6.2-6.11,8.56l0-11.41C1441.89,609.82,1443.92,606.72,1443.93,603.62Z"/></clipPath><clipPath id="clip-path-9" transform="translate(-492.8 -255.61)"><path class="cls-1" d="M1105.64,799.76l0,11.41c-5.58,3.25-14.72,3.26-20.35,0l0-11.41C1090.92,803,1100.05,803,1105.64,799.76Z"/></clipPath><clipPath id="clip-path-10" transform="translate(-492.8 -255.61)"><path class="cls-1" d="M1110.35,802.48l0,11.42c-8.18,4.75-21.52,4.75-29.75,0l0-11.42C1088.83,807.24,1102.18,807.24,1110.35,802.48Z"/></clipPath></defs><g id="details"><path class="cls-2" d="M579.44,102" transform="translate(-492.8 -255.61)"/><g class="cls-3"><g class="cls-3"><g class="cls-4"><g class="cls-3"><path class="cls-5" d="M851.48,261.9l0,11.41a15.69,15.69,0,0,0-2.06-1l0-11.41a16.47,16.47,0,0,1,2.07,1" transform="translate(-492.8 -255.61)"/><path class="cls-6" d="M849.41,260.91l0,11.41c-.56-.22-1.15-.42-1.74-.59l0-11.41c.6.17,1.18.37,1.74.59" transform="translate(-492.8 -255.61)"/><path class="cls-7" d="M847.67,260.32l0,11.41c-.49-.14-1-.26-1.51-.36l0-11.42c.51.11,1,.23,1.5.37" transform="translate(-492.8 -255.61)"/><path class="cls-8" d="M846.17,260l0,11.42c-.47-.1-.94-.18-1.42-.25l0-11.42c.48.07,1,.16,1.43.25" transform="translate(-492.8 -255.61)"/><path class="cls-9" d="M844.74,259.7l0,11.42c-.47-.07-.94-.12-1.41-.16l0-11.41c.47,0,.93.09,1.4.15" transform="translate(-492.8 -255.61)"/><path class="cls-10" d="M843.34,259.55l0,11.41c-.47,0-.94-.06-1.42-.08l0-11.41c.48,0,1,0,1.43.08" transform="translate(-492.8 -255.61)"/><path class="cls-11" d="M841.91,259.47l0,11.41c-.49,0-1,0-1.48,0l0-11.41c.5,0,1,0,1.48,0" transform="translate(-492.8 -255.61)"/><path class="cls-12" d="M840.43,259.48l0,11.41c-.54,0-1.07.05-1.6.11l0-11.41c.53-.06,1.07-.09,1.6-.11" transform="translate(-492.8 -255.61)"/><path class="cls-13" d="M838.83,259.59l0,11.41c-.62.06-1.24.14-1.84.25l0-11.41c.6-.11,1.22-.19,1.84-.25" transform="translate(-492.8 -255.61)"/><path class="cls-14" d="M837,259.84l0,11.41a21.36,21.36,0,0,0-2.73.68l0-11.41a21.78,21.78,0,0,1,2.73-.68" transform="translate(-492.8 -255.61)"/><path class="cls-15" d="M834.26,260.52l0,11.41a16.57,16.57,0,0,0-3.14,1.38l0-11.41a16.57,16.57,0,0,1,3.14-1.38" transform="translate(-492.8 -255.61)"/></g></g></g><polygon class="cls-16" points="338.32 6.29 338.29 17.7 10.82 208.01 10.85 196.59 338.32 6.29"/><g class="cls-3"><g class="cls-17"><g class="cls-3"><path class="cls-15" d="M503.65,452.21l0,11.41-.17.1,0-11.41.17-.1" transform="translate(-492.8 -255.61)"/><path class="cls-14" d="M503.48,452.31l0,11.41a11.59,11.59,0,0,0-1.82,1.34l0-11.41a11,11,0,0,1,1.81-1.34" transform="translate(-492.8 -255.61)"/><path class="cls-13" d="M501.67,453.65l0,11.41a8.81,8.81,0,0,0-.89,1l0-11.41a8,8,0,0,1,.9-1" transform="translate(-492.8 -255.61)"/><path class="cls-12" d="M500.77,454.61l0,11.41a7.63,7.63,0,0,0-.58.86l0-11.41a7.63,7.63,0,0,1,.58-.86" transform="translate(-492.8 -255.61)"/><path class="cls-11" d="M500.19,455.47l0,11.41a6,6,0,0,0-.38.82l0-11.41a5.5,5.5,0,0,1,.38-.82" transform="translate(-492.8 -255.61)"/><path class="cls-10" d="M499.81,456.29l0,11.41a6.21,6.21,0,0,0-.24.81l0-11.41a4.92,4.92,0,0,1,.23-.81" transform="translate(-492.8 -255.61)"/><path class="cls-9" d="M499.58,457.1l0,11.41a6,6,0,0,0-.09.83l0-11.41a4.7,4.7,0,0,1,.1-.83" transform="translate(-492.8 -255.61)"/><path class="cls-8" d="M499.48,457.93l0,11.41v.13l0-11.41v-.13" transform="translate(-492.8 -255.61)"/></g></g></g><g class="cls-3"><g class="cls-18"><g class="cls-3"><path class="cls-5" d="M503.72,464l0,11.42c-2.83-1.64-4.25-3.79-4.24-5.94l0-11.41c0,2.15,1.41,4.3,4.24,5.93" transform="translate(-492.8 -255.61)"/></g></g></g><g class="cls-3"><g class="cls-19"><g class="cls-3"><path class="cls-5" d="M503.72,464l0,11.42c-2.83-1.64-4.25-3.79-4.24-5.94l0-11.41c0,2.15,1.41,4.3,4.24,5.93" transform="translate(-492.8 -255.61)"/></g></g></g><g class="cls-3"><g class="cls-20"><g class="cls-3"><path class="cls-5" d="M499,466.72l0,11.41c-4.14-2.39-6.21-5.54-6.2-8.68l0-11.41c0,3.14,2.06,6.29,6.2,8.68" transform="translate(-492.8 -255.61)"/></g></g></g><polygon class="cls-6" points="940.24 342.06 940.21 353.47 358.64 17.7 358.68 6.29 940.24 342.06"/><g class="cls-3"><g class="cls-21"><g class="cls-3"><path class="cls-5" d="M1437.28,603.6l0,11.41c0-2.15-1.41-4.3-4.24-5.93l0-11.41c2.83,1.63,4.25,3.78,4.24,5.93" transform="translate(-492.8 -255.61)"/></g></g></g><g class="cls-3"><g class="cls-22"><g class="cls-3"><path class="cls-8" d="M1437.28,603.6l0,11.41v.13l0-11.41v-.13" transform="translate(-492.8 -255.61)"/><path class="cls-9" d="M1437.28,603.73l0,11.41a4.7,4.7,0,0,1-.1.83l0-11.41a6,6,0,0,0,.09-.83" transform="translate(-492.8 -255.61)"/><path class="cls-10" d="M1437.19,604.56l0,11.41a4.92,4.92,0,0,1-.23.81l0-11.41a6.21,6.21,0,0,0,.24-.81" transform="translate(-492.8 -255.61)"/><path class="cls-11" d="M1437,605.37l0,11.41a5.5,5.5,0,0,1-.38.82l0-11.41a6,6,0,0,0,.38-.82" transform="translate(-492.8 -255.61)"/><path class="cls-12" d="M1436.57,606.19l0,11.41a7.63,7.63,0,0,1-.58.86l0-11.41a7.63,7.63,0,0,0,.58-.86" transform="translate(-492.8 -255.61)"/><path class="cls-13" d="M1436,607.05l0,11.41a8,8,0,0,1-.9,1l0-11.41a8.81,8.81,0,0,0,.89-1" transform="translate(-492.8 -255.61)"/><path class="cls-14" d="M1435.1,608l0,11.41a10.62,10.62,0,0,1-1.82,1.35l0-11.41a11.47,11.47,0,0,0,1.82-1.35" transform="translate(-492.8 -255.61)"/><path class="cls-15" d="M1433.28,609.36l0,11.41-.17.1,0-11.41.18-.1" transform="translate(-492.8 -255.61)"/></g></g></g><g class="cls-3"><g class="cls-23"><g class="cls-3"><path class="cls-8" d="M1443.93,603.62l0,11.41a1.28,1.28,0,0,1,0,.19l0-11.42v-.18" transform="translate(-492.8 -255.61)"/><path class="cls-9" d="M1443.93,603.8l0,11.42a7.22,7.22,0,0,1-.13,1.21l0-11.42a7,7,0,0,0,.14-1.21" transform="translate(-492.8 -255.61)"/><path class="cls-10" d="M1443.79,605l0,11.42a8.73,8.73,0,0,1-.34,1.18l0-11.41a7.3,7.3,0,0,0,.34-1.19" transform="translate(-492.8 -255.61)"/><path class="cls-11" d="M1443.45,606.2l0,11.41a8.21,8.21,0,0,1-.57,1.2l0-11.41a8.14,8.14,0,0,0,.56-1.2" transform="translate(-492.8 -255.61)"/><path class="cls-12" d="M1442.89,607.4l0,11.41a9.86,9.86,0,0,1-.84,1.26l0-11.41a10,10,0,0,0,.85-1.26" transform="translate(-492.8 -255.61)"/><path class="cls-13" d="M1442,608.66l0,11.41a12.17,12.17,0,0,1-1.31,1.4l0-11.41a11.35,11.35,0,0,0,1.31-1.4" transform="translate(-492.8 -255.61)"/><path class="cls-14" d="M1440.73,610.06l0,11.41a15.7,15.7,0,0,1-2.66,2l0-11.41a16,16,0,0,0,2.65-2" transform="translate(-492.8 -255.61)"/><path class="cls-15" d="M1438.08,612l0,11.41-.25.15,0-11.41.26-.15" transform="translate(-492.8 -255.61)"/></g></g></g><polygon class="cls-16" points="940.3 353.85 940.27 365.26 612.81 555.56 612.84 544.15 940.3 353.85"/><polygon class="cls-6" points="592.49 544.15 592.45 555.56 10.89 219.79 10.92 208.38 592.49 544.15"/><polygon class="cls-16" points="945.02 356.57 944.99 367.98 617.52 558.28 617.56 546.87 945.02 356.57"/><polygon class="cls-6" points="587.8 546.87 587.77 558.28 6.2 222.52 6.23 211.11 587.8 546.87"/><g class="cls-3"><g class="cls-24"><g class="cls-3"><path class="cls-15" d="M1105.64,799.76l0,11.41a16,16,0,0,1-3.14,1.39l0-11.42a15.72,15.72,0,0,0,3.15-1.38" transform="translate(-492.8 -255.61)"/><path class="cls-14" d="M1102.49,801.14l0,11.42a21.19,21.19,0,0,1-2.72.67l0-11.41a19.67,19.67,0,0,0,2.72-.68" transform="translate(-492.8 -255.61)"/><path class="cls-13" d="M1099.77,801.82l0,11.41c-.61.11-1.22.2-1.84.26l0-11.41c.62-.06,1.23-.15,1.84-.26" transform="translate(-492.8 -255.61)"/><path class="cls-12" d="M1097.93,802.08l0,11.41c-.53,0-1.07.09-1.6.11l0-11.42c.53,0,1.07,0,1.6-.1" transform="translate(-492.8 -255.61)"/><path class="cls-11" d="M1096.33,802.18l0,11.42c-.5,0-1,0-1.48,0l0-11.41c.49,0,1,0,1.48,0" transform="translate(-492.8 -255.61)"/><path class="cls-10" d="M1094.85,802.19l0,11.41c-.48,0-1,0-1.42-.07l0-11.41c.47,0,.94.06,1.42.07" transform="translate(-492.8 -255.61)"/><path class="cls-9" d="M1093.43,802.12l0,11.41c-.47,0-.94-.09-1.41-.16l0-11.41c.46.06.93.12,1.4.16" transform="translate(-492.8 -255.61)"/><path class="cls-8" d="M1092,802l0,11.41c-.48-.07-1-.15-1.42-.25l0-11.41c.47.1.94.18,1.43.25" transform="translate(-492.8 -255.61)"/><path class="cls-7" d="M1090.6,801.71l0,11.41c-.51-.1-1-.23-1.51-.37l0-11.41c.49.14,1,.26,1.5.37" transform="translate(-492.8 -255.61)"/><path class="cls-6" d="M1089.1,801.34l0,11.41c-.59-.17-1.18-.36-1.74-.58l0-11.42a16.34,16.34,0,0,0,1.75.59" transform="translate(-492.8 -255.61)"/><path class="cls-5" d="M1087.35,800.75l0,11.42a15.23,15.23,0,0,1-2.07-1l0-11.41a14.09,14.09,0,0,0,2.07,1" transform="translate(-492.8 -255.61)"/></g></g></g><path class="cls-25" d="M1433,597.67c5.63,3.25,5.66,8.54.06,11.79l-327.46,190.3c-5.59,3.25-14.72,3.25-20.36,0L503.72,464c-5.63-3.24-5.66-8.54-.07-11.78L831.12,261.9c5.59-3.25,14.73-3.25,20.36,0Z" transform="translate(-492.8 -255.61)"/><path class="cls-25" d="M1437.73,594.94c8.23,4.75,8.27,12.49.09,17.24l-327.47,190.3c-8.17,4.76-21.52,4.76-29.75,0L499,466.72c-8.23-4.75-8.27-12.49-.1-17.24L826.4,259.18c8.18-4.76,21.53-4.76,29.76,0ZM1105.64,799.76l327.46-190.3c5.6-3.25,5.57-8.54-.06-11.79L851.48,261.9c-5.63-3.25-14.77-3.25-20.36,0L503.65,452.21c-5.59,3.24-5.56,8.54.07,11.78l581.56,335.77c5.64,3.25,14.77,3.25,20.36,0" transform="translate(-492.8 -255.61)"/><g class="cls-3"><g class="cls-26"><g class="cls-3"><path class="cls-15" d="M1110.35,802.48l0,11.42a24.44,24.44,0,0,1-4.59,2l0-11.42a22.71,22.71,0,0,0,4.59-2" transform="translate(-492.8 -255.61)"/><path class="cls-14" d="M1105.76,804.5l0,11.42a31.86,31.86,0,0,1-4,1l0-11.41a29.84,29.84,0,0,0,4-1" transform="translate(-492.8 -255.61)"/><path class="cls-13" d="M1101.77,805.5l0,11.41c-.88.16-1.78.28-2.69.37l0-11.41c.9-.09,1.8-.21,2.68-.37" transform="translate(-492.8 -255.61)"/><path class="cls-12" d="M1099.09,805.87l0,11.41c-.77.08-1.55.13-2.34.16l0-11.41c.78,0,1.56-.08,2.34-.16" transform="translate(-492.8 -255.61)"/><path class="cls-11" d="M1096.75,806l0,11.41c-.72,0-1.44,0-2.16,0l0-11.41c.72,0,1.45,0,2.17,0" transform="translate(-492.8 -255.61)"/><path class="cls-10" d="M1094.58,806l0,11.41c-.69,0-1.39-.06-2.08-.11l0-11.41c.69.05,1.38.09,2.07.11" transform="translate(-492.8 -255.61)"/><path class="cls-9" d="M1092.51,805.93l0,11.41c-.68-.06-1.37-.14-2-.23l0-11.41c.67.09,1.36.17,2,.23" transform="translate(-492.8 -255.61)"/><path class="cls-8" d="M1090.46,805.7l0,11.41c-.7-.1-1.4-.22-2.09-.36l0-11.42c.68.15,1.38.27,2.09.37" transform="translate(-492.8 -255.61)"/><path class="cls-7" d="M1088.37,805.33l0,11.42q-1.11-.24-2.19-.54l0-11.41c.72.2,1.45.38,2.2.53" transform="translate(-492.8 -255.61)"/><path class="cls-6" d="M1086.17,804.8l0,11.41c-.88-.25-1.73-.54-2.55-.86l0-11.42a26.36,26.36,0,0,0,2.55.87" transform="translate(-492.8 -255.61)"/><path class="cls-5" d="M1083.62,803.93l0,11.42a22.78,22.78,0,0,1-3-1.45l0-11.42a22.15,22.15,0,0,0,3,1.45" transform="translate(-492.8 -255.61)"/></g></g></g></g><path class="cls-27" d="M945.73,513.62,720.22,383.43c-6.08-3.51-5.32-9.65,1.71-13.71l128.41-74.14c7-4.05,17.66-4.49,23.74-1l225.5,130.19c6.09,3.52,5.33,9.65-1.7,13.71L969.46,512.64C962.44,516.69,951.81,517.14,945.73,513.62Z" transform="translate(-492.8 -255.61)"/><path class="cls-27" d="M1224.3,674.46,998.8,544.26c-6.09-3.51-5.32-9.64,1.7-13.7l128.42-74.14c7-4.06,17.65-4.5,23.74-1l225.5,130.2c6.08,3.51,5.32,9.65-1.7,13.7L1248,673.47C1241,677.53,1230.39,678,1224.3,674.46Z" transform="translate(-492.8 -255.61)"/><path class="cls-27" d="M1074.36,761l-296-170.9c-6.09-3.51-5.32-9.65,1.7-13.7l99.22-57.29c7-4,17.65-4.49,23.74-1l296,170.9c6.08,3.51,5.32,9.64-1.71,13.7L1098.1,760C1091.07,764.1,1080.44,764.54,1074.36,761Z" transform="translate(-492.8 -255.61)"/><path class="cls-27" d="M719.5,556.15,570.28,470c-6.08-3.52-5.32-9.65,1.71-13.71L671.2,399c7-4.06,17.66-4.5,23.74-1l149.22,86.15c6.08,3.51,5.32,9.64-1.71,13.7l-99.22,57.28C736.21,559.22,725.58,559.66,719.5,556.15Z" transform="translate(-492.8 -255.61)"/><path class="cls-2" d="M1224.16,432.45" transform="translate(-492.8 -255.61)"/><path class="cls-28" d="M1085.78,754.21,835.36,609.64c-.44-.26-.38-.7.13-1l102.85-59.38a1.94,1.94,0,0,1,1.72-.07l250.41,144.58c.44.25.39.69-.12,1l-102.86,59.38A1.89,1.89,0,0,1,1085.78,754.21Z" transform="translate(-492.8 -255.61)"/><path class="cls-28" d="M834.29,609l-48.21-27.84c-.31-.17-.27-.48.09-.69l103.41-59.7a1.31,1.31,0,0,1,1.2,0L939,548.57c.31.18.27.49-.09.69L835.49,609A1.34,1.34,0,0,1,834.29,609Z" transform="translate(-492.8 -255.61)"/><path class="cls-29" d="M900.3,542.65c.09-.4.84-4.44-4.63-7.38s-12.45-2.24-13.13-2.16c-.07.43-.59,4.52,5,7.42C892.92,543.28,899.46,542.73,900.3,542.65Z" transform="translate(-492.8 -255.61)"/><path class="cls-30" d="M895.67,535.27s-8.43-.82-8.48,5.05C887.19,540.32,896.41,541.27,895.67,535.27Z" transform="translate(-492.8 -255.61)"/><line class="cls-31" x1="396.88" y1="324.94" x2="643.49" y2="467.32"/><polygon class="cls-32" points="504.34 376.19 417.33 325.96 452.45 305.69 539.45 355.92 504.34 376.19"/><polygon class="cls-33" points="450.54 407.25 363.54 357.02 398.65 336.74 485.66 386.98 450.54 407.25"/><polygon class="cls-33" points="582.2 483.26 462.44 414.12 497.56 393.85 617.32 462.99 582.2 483.26"/><polygon class="cls-34" points="293.76 216.8 180.12 151.19 195.51 142.31 309.15 207.92 293.76 216.8"/><path class="cls-35" d="M696.64,410.12a5,5,0,0,1-4.52,0,1.38,1.38,0,0,1,0-2.61,5,5,0,0,1,4.52,0A1.38,1.38,0,0,1,696.64,410.12Z" transform="translate(-492.8 -255.61)"/><line class="cls-35" x1="191.62" y1="153.05" x2="198.39" y2="153.2"/><path class="cls-36" d="M904.14,549.75l8-4.62-.93,4.33,7.64-.46-8,4.62" transform="translate(-492.8 -255.61)"/><polygon class="cls-36" points="418.65 301.65 405.21 293.89 418.65 286.13 432.1 293.89 418.65 301.65"/><path class="cls-37" d="M850.22,580.78l8-4.62-.93,4.33,7.64-.46-8,4.62" transform="translate(-492.8 -255.61)"/><polygon class="cls-37" points="364.74 332.68 351.29 324.92 364.74 317.16 378.18 324.92 364.74 332.68"/><path class="cls-38" d="M870.1,555.33l-8.92-5.14c-.87-.51-.76-1.39.25-2l4.32-2.5a3.78,3.78,0,0,1,3.41-.14l8.92,5.15c.88.5.77,1.38-.24,2l-4.33,2.49A3.78,3.78,0,0,1,870.1,555.33Z" transform="translate(-492.8 -255.61)"/><path class="cls-39" d="M874.67,543.69l-6.32,3.65Z" transform="translate(-492.8 -255.61)"/><path class="cls-40" d="M880.19,549c2.44-1.45,2.37-3.61.4-4.73a9,9,0,0,0-5.92-.55" transform="translate(-492.8 -255.61)"/><path class="cls-38" d="M835.32,575.47l-8.92-5.15c-.87-.5-.76-1.39.25-2l4.32-2.5a3.81,3.81,0,0,1,3.41-.14l8.92,5.15c.87.51.76,1.39-.25,2l-4.32,2.5A3.81,3.81,0,0,1,835.32,575.47Z" transform="translate(-492.8 -255.61)"/><path class="cls-39" d="M839.89,563.83l-6.32,3.64Z" transform="translate(-492.8 -255.61)"/><path class="cls-40" d="M845.41,569.11c2.44-1.46,2.37-3.62.39-4.73a9,9,0,0,0-5.91-.55" transform="translate(-492.8 -255.61)"/><path class="cls-41" d="M1248.35,651.41,1039.4,530.77c-5.41-3.12-4.73-8.57,1.51-12.18L1137.2,463c6.25-3.6,15.69-4,21.1-.87l209,120.64c5.41,3.12,4.73,8.57-1.51,12.18l-96.29,55.59C1263.21,654.14,1253.76,654.54,1248.35,651.41Z" transform="translate(-492.8 -255.61)"/><path class="cls-41" d="M964,489.31,755,368.67c-5.41-3.12-4.73-8.58,1.51-12.18l96.29-55.6c6.25-3.6,15.69-4,21.1-.87l208.95,120.64c5.41,3.12,4.73,8.57-1.51,12.18l-96.29,55.59C978.81,492,969.36,492.43,964,489.31Z" transform="translate(-492.8 -255.61)"/><path class="cls-42" d="M1015.75,530.16l231.1,133.43" transform="translate(-492.8 -255.61)"/><line class="cls-42" x1="528.87" y1="271.13" x2="517.42" y2="277.74"/><line class="cls-42" x1="540.44" y1="280.32" x2="533.18" y2="284.52"/><line class="cls-42" x1="554.91" y1="288.82" x2="547.65" y2="293.02"/><line class="cls-42" x1="569.38" y1="297.18" x2="562.12" y2="301.37"/><line class="cls-42" x1="583.86" y1="305.68" x2="576.59" y2="309.87"/><line class="cls-42" x1="598.33" y1="314.03" x2="591.06" y2="318.23"/><line class="cls-42" x1="612.8" y1="322.53" x2="605.54" y2="326.73"/><line class="cls-42" x1="627.27" y1="330.89" x2="620" y2="335.08"/><line class="cls-42" x1="641.74" y1="339.39" x2="634.48" y2="343.58"/><line class="cls-42" x1="657.07" y1="347.95" x2="649.8" y2="352.14"/><line class="cls-42" x1="671.54" y1="356.45" x2="664.28" y2="360.64"/><line class="cls-42" x1="686.01" y1="364.8" x2="678.75" y2="369"/><line class="cls-42" x1="700.49" y1="373.3" x2="693.22" y2="377.5"/><line class="cls-42" x1="714.96" y1="381.66" x2="707.69" y2="385.85"/><line class="cls-42" x1="729.43" y1="390.16" x2="722.17" y2="394.35"/><line class="cls-42" x1="743.9" y1="398.51" x2="736.63" y2="402.71"/><line class="cls-42" x1="760.11" y1="406.01" x2="748.67" y2="412.62"/><path class="cls-43" d="M1106.58,594.39l-5.84,3.37,7.14.65C1107.45,597.07,1107,595.73,1106.58,594.39Z" transform="translate(-492.8 -255.61)"/><line class="cls-44" x1="624.31" y1="344.6" x2="617.9" y2="348.29"/><line class="cls-44" x1="628.51" y1="347.03" x2="622.11" y2="350.72"/><polygon class="cls-40" points="634.61 357.55 628.54 354.05 634.61 350.54 640.67 354.05 634.61 357.55"/><path class="cls-42" d="M732.3,368.22,963.4,501.65" transform="translate(-492.8 -255.61)"/><line class="cls-42" x1="245.42" y1="109.19" x2="233.98" y2="115.8"/><line class="cls-42" x1="256.99" y1="118.38" x2="249.73" y2="122.57"/><line class="cls-42" x1="271.47" y1="126.88" x2="264.2" y2="131.07"/><line class="cls-42" x1="285.94" y1="135.23" x2="278.67" y2="139.43"/><line class="cls-42" x1="300.41" y1="143.73" x2="293.14" y2="147.93"/><line class="cls-42" x1="314.88" y1="152.09" x2="307.62" y2="156.28"/><line class="cls-42" x1="329.36" y1="160.59" x2="322.09" y2="164.79"/><line class="cls-42" x1="343.82" y1="168.94" x2="336.56" y2="173.14"/><line class="cls-42" x1="358.3" y1="177.44" x2="351.03" y2="181.64"/><line class="cls-42" x1="373.62" y1="186" x2="366.36" y2="190.2"/><line class="cls-42" x1="388.1" y1="194.51" x2="380.83" y2="198.7"/><line class="cls-42" x1="402.57" y1="202.86" x2="395.3" y2="207.05"/><line class="cls-42" x1="417.04" y1="211.36" x2="409.77" y2="215.55"/><line class="cls-42" x1="431.51" y1="219.71" x2="424.25" y2="223.91"/><line class="cls-42" x1="445.98" y1="228.22" x2="438.72" y2="232.41"/><line class="cls-42" x1="460.45" y1="236.57" x2="453.19" y2="240.76"/><line class="cls-42" x1="476.67" y1="244.07" x2="465.22" y2="250.67"/><path class="cls-43" d="M824.07,431.9l-5.85,3.38,7.15.65Z" transform="translate(-492.8 -255.61)"/><line class="cls-44" x1="341.79" y1="182.11" x2="335.39" y2="185.81"/><line class="cls-44" x1="346" y1="184.54" x2="339.6" y2="188.24"/><polygon class="cls-40" points="352.1 195.06 346.03 191.56 352.1 188.06 358.16 191.56 352.1 195.06"/><path class="cls-45" d="M689.35,469.3l-56.2-32.44c-3.21-1.85-2.81-5.09.9-7.23l24.34-14.06c3.71-2.14,9.32-2.37,12.53-.51l56.2,32.44c3.21,1.85,2.8,5.09-.9,7.23l-24.34,14.06C698.17,470.93,692.56,471.16,689.35,469.3Z" transform="translate(-492.8 -255.61)"/><path class="cls-46" d="M636.56,499.78l-56.2-32.44c-3.21-1.86-2.8-5.09.9-7.24l27.78-16c3.71-2.14,9.32-2.38,12.53-.52L677.76,476c3.22,1.86,2.81,5.1-.89,7.24l-27.78,16C645.38,501.4,639.77,501.64,636.56,499.78Z" transform="translate(-492.8 -255.61)"/><path class="cls-47" d="M716,545.62l-56.2-32.45c-3.21-1.85-2.81-5.09.9-7.23l27.77-16c3.71-2.14,9.32-2.38,12.53-.52l56.2,32.44c3.21,1.86,2.81,5.09-.9,7.23l-27.78,16C724.77,547.24,719.17,547.47,716,545.62Z" transform="translate(-492.8 -255.61)"/><path class="cls-48" d="M765.31,517.13l-56.2-32.45c-3.21-1.85-2.81-5.09.9-7.23l27.78-16c3.7-2.14,9.31-2.37,12.52-.52l56.2,32.45c3.21,1.85,2.81,5.09-.9,7.23l-27.78,16C774.13,518.75,768.52,519,765.31,517.13Z" transform="translate(-492.8 -255.61)"/></g></svg>